<?xml version="1.0" encoding="UTF-8" standalone="no"?>
<!DOCTYPE svg PUBLIC "-//W3C//DTD SVG 1.1//EN"
 "http://www.w3.org/Graphics/SVG/1.1/DTD/svg11.dtd">
<!-- Generated by graphviz version 2.42.3 (20191010.1750)
 -->
<!-- Title: finite_state_machine Pages: 1 -->
<svg width="454pt" height="154pt"
 viewBox="0.00 0.00 454.00 154.00" xmlns="http://www.w3.org/2000/svg" xmlns:xlink="http://www.w3.org/1999/xlink">
<g id="graph0" class="graph" transform="scale(1 1) rotate(0) translate(4 150)">
<title>finite_state_machine</title>
<polygon fill="white" stroke="transparent" points="-4,4 -4,-150 450,-150 450,4 -4,4"/>
<!-- 0 -->
<g id="node1" class="node">
<title>0</title>
<ellipse fill="none" stroke="black" cx="18" cy="-77" rx="18" ry="18"/>
<text text-anchor="middle" x="18" y="-73.3" font-family="Helvetica,Arial,sans-serif" font-size="14.00">0</text>
</g>
<!-- 2 -->
<g id="node2" class="node">
<title>2</title>
<ellipse fill="none" stroke="black" cx="223" cy="-128" rx="18" ry="18"/>
<text text-anchor="middle" x="223" y="-124.3" font-family="Helvetica,Arial,sans-serif" font-size="14.00">2</text>
</g>
<!-- 0&#45;&gt;2 -->
<g id="edge1" class="edge">
<title>0&#45;&gt;2</title>
<path fill="none" stroke="black" d="M33.98,-86.08C40.04,-89.5 47.21,-93.24 54,-96 99.35,-114.46 111.62,-118.49 160,-126 171.25,-127.75 183.79,-128.39 194.63,-128.55"/>
<polygon fill="black" stroke="black" points="194.79,-132.05 204.79,-128.56 194.8,-125.05 194.79,-132.05"/>
<text text-anchor="middle" x="124" y="-125.8" font-family="Helvetica,Arial,sans-serif" font-size="14.00">8/8</text>
</g>
<!-- 3 -->
<g id="node3" class="node">
<title>3</title>
<ellipse fill="none" stroke="black" cx="124" cy="-77" rx="18" ry="18"/>
<text text-anchor="middle" x="124" y="-73.3" font-family="Helvetica,Arial,sans-serif" font-size="14.00">3</text>
</g>
<!-- 0&#45;&gt;3 -->
<g id="edge2" class="edge">
<title>0&#45;&gt;3</title>
<path fill="none" stroke="black" d="M36.17,-77C52.36,-77 76.87,-77 95.73,-77"/>
<polygon fill="black" stroke="black" points="95.8,-80.5 105.8,-77 95.8,-73.5 95.8,-80.5"/>
<text text-anchor="middle" x="71" y="-80.8" font-family="Helvetica,Arial,sans-serif" font-size="14.00">10/10</text>
</g>
<!-- 1 -->
<g id="node4" class="node">
<title>1</title>
<ellipse fill="none" stroke="black" cx="223" cy="-18" rx="18" ry="18"/>
<text text-anchor="middle" x="223" y="-14.3" font-family="Helvetica,Arial,sans-serif" font-size="14.00">1</text>
</g>
<!-- 0&#45;&gt;1 -->
<g id="edge3" class="edge">
<title>0&#45;&gt;1</title>
<path fill="none" stroke="black" d="M33.83,-68.1C50.7,-58.4 79.38,-43.16 106,-35 135.53,-25.94 170.81,-21.65 194.65,-19.65"/>
<polygon fill="black" stroke="black" points="195.03,-23.14 204.74,-18.89 194.5,-16.16 195.03,-23.14"/>
<text text-anchor="middle" x="124" y="-38.8" font-family="Helvetica,Arial,sans-serif" font-size="14.00">7/7</text>
</g>
<!-- 4 -->
<g id="node5" class="node">
<title>4</title>
<ellipse fill="none" stroke="black" cx="322" cy="-71" rx="18" ry="18"/>
<text text-anchor="middle" x="322" y="-67.3" font-family="Helvetica,Arial,sans-serif" font-size="14.00">4</text>
</g>
<!-- 2&#45;&gt;4 -->
<g id="edge4" class="edge">
<title>2&#45;&gt;4</title>
<path fill="none" stroke="black" d="M239.16,-119.09C254.67,-109.97 279.02,-95.67 297.13,-85.03"/>
<polygon fill="black" stroke="black" points="299.1,-87.93 305.95,-79.84 295.56,-81.89 299.1,-87.93"/>
<text text-anchor="middle" x="272.5" y="-109.8" font-family="Helvetica,Arial,sans-serif" font-size="14.00">9/12</text>
</g>
<!-- 3&#45;&gt;2 -->
<g id="edge6" class="edge">
<title>3&#45;&gt;2</title>
<path fill="none" stroke="black" d="M140.16,-84.97C155.44,-93.01 179.29,-105.55 197.31,-115.02"/>
<polygon fill="black" stroke="black" points="196.15,-118.36 206.63,-119.92 199.41,-112.17 196.15,-118.36"/>
<text text-anchor="middle" x="173.5" y="-111.8" font-family="Helvetica,Arial,sans-serif" font-size="14.00">1/2</text>
</g>
<!-- 3&#45;&gt;1 -->
<g id="edge7" class="edge">
<title>3&#45;&gt;1</title>
<path fill="none" stroke="black" d="M137.72,-65.19C144.12,-59.59 152.17,-53.03 160,-48 171.51,-40.6 185.13,-33.82 196.66,-28.58"/>
<polygon fill="black" stroke="black" points="198.41,-31.64 206.16,-24.4 195.59,-25.23 198.41,-31.64"/>
<text text-anchor="middle" x="173.5" y="-51.8" font-family="Helvetica,Arial,sans-serif" font-size="14.00">4/11</text>
</g>
<!-- 3&#45;&gt;4 -->
<g id="edge5" class="edge">
<title>3&#45;&gt;4</title>
<path fill="none" stroke="black" d="M142.05,-76.48C176.08,-75.44 252.66,-73.09 293.74,-71.83"/>
<polygon fill="black" stroke="black" points="293.96,-75.33 303.85,-71.53 293.75,-68.33 293.96,-75.33"/>
<text text-anchor="middle" x="223" y="-77.8" font-family="Helvetica,Arial,sans-serif" font-size="14.00">5/5</text>
</g>
<!-- 1&#45;&gt;4 -->
<g id="edge8" class="edge">
<title>1&#45;&gt;4</title>
<path fill="none" stroke="black" d="M239.83,-24.97C252.54,-30.72 270.71,-39.33 286,-48 290.02,-50.28 294.21,-52.85 298.22,-55.42"/>
<polygon fill="black" stroke="black" points="296.34,-58.37 306.62,-60.94 300.19,-52.52 296.34,-58.37"/>
<text text-anchor="middle" x="272.5" y="-51.8" font-family="Helvetica,Arial,sans-serif" font-size="14.00">0/1</text>
</g>
<!-- 5 -->
<g id="node6" class="node">
<title>5</title>
<ellipse fill="none" stroke="black" cx="428" cy="-30" rx="18" ry="18"/>
<text text-anchor="middle" x="428" y="-26.3" font-family="Helvetica,Arial,sans-serif" font-size="14.00">5</text>
</g>
<!-- 1&#45;&gt;5 -->
<g id="edge9" class="edge">
<title>1&#45;&gt;5</title>
<path fill="none" stroke="black" d="M241.31,-19.02C276.68,-21.11 357.47,-25.89 399.88,-28.4"/>
<polygon fill="black" stroke="black" points="399.83,-31.9 410.02,-29 400.25,-24.91 399.83,-31.9"/>
<text text-anchor="middle" x="322" y="-28.8" font-family="Helvetica,Arial,sans-serif" font-size="14.00">11/21</text>
</g>
<!-- 4&#45;&gt;5 -->
<g id="edge10" class="edge">
<title>4&#45;&gt;5</title>
<path fill="none" stroke="black" d="M339.25,-64.59C355.89,-58.03 381.99,-47.74 401.41,-40.09"/>
<polygon fill="black" stroke="black" points="402.84,-43.29 410.86,-36.36 400.28,-36.77 402.84,-43.29"/>
<text text-anchor="middle" x="375" y="-59.8" font-family="Helvetica,Arial,sans-serif" font-size="14.00">14/14</text>
</g>
</g>
</svg>
